<svg t="1699691166506" class="icon" viewBox="0 0 1024 1024" version="1.1" xmlns="http://www.w3.org/2000/svg" p-id="14600" width="200" height="200"><path d="M323.7888 691.072q-4.736 20.1472-8.4864 40.4864c-12.0192 80.64 0 137.4336 33.0752 154.88 36.736 19.6608 104.5888-9.28 179.968-78.528a919.5392 919.5392 0 0 1-89.0496-101.4912 1076.9152 1076.9152 0 0 1-115.5072-15.3472z m-40.0256-8.5376c-79.6416-18.9696-144.7168-46.7968-184.7936-80.7552a89.3184 89.3184 0 1 1 44.3392-16.8832 497.92 497.92 0 0 0 150.7456 58.5344 935.8592 935.8592 0 0 1 38.9632-109.5552 930.6496 930.6496 0 0 1-58.0736-140.0704q-43.52 11.8272-85.76 27.9168a20.3008 20.3008 0 0 1-26.6752-9.9712 19.8528 19.8528 0 0 1 10.0608-26.432 936.2048 936.2048 0 0 1 91.008-29.5424q-10.0224-36.1856-17.0752-73.1008a414.1952 414.1952 0 0 1-3.6224-63.8208 139.584 139.584 0 0 1 60.16-132.928c60.7744-32.2944 156.7744 13.44 252.5696 111.3216a458.88 458.88 0 0 1 135.8848-99.84 89.4208 89.4208 0 0 1 45.5936-41.2288 90.6368 90.6368 0 0 1 98.048 19.8016 87.8464 87.8464 0 0 1 18.7392 97.0368 90.0864 90.0864 0 0 1-172.1088-26.4704 488.7424 488.7424 0 0 0-99.1616 79.68 1004.352 1004.352 0 0 1 80.3328 103.8976 963.4944 963.4944 0 0 1 137.5232 23.8848 841.7408 841.7408 0 0 0 19.6608-99.1616 20.4032 20.4032 0 0 1 22.2592-18.048 20.032 20.032 0 0 1 18.5984 21.5168 880.3456 880.3456 0 0 1-20.8768 106.9184c110.6176 34.9696 180.48 89.2416 180.48 151.3984 0 65.728-77.9648 122.88-199.9104 157.696 15.0272 64.7552 18.2272 121.984 7.8848 164.9792a76.096 76.096 0 0 1 22.2208 23.8848 74.5728 74.5728 0 0 1 0 75.9808 78.4896 78.4896 0 0 1-134.4 0 74.3552 74.3552 0 0 1 0-75.968 77.9648 77.9648 0 0 1 74.1632-37.7088c8.3968-36.544 5.376-85.6192-7.424-141.4656a984.0896 984.0896 0 0 1-109.376 18.5472 972.6336 972.6336 0 0 1-88.128 104.5504q20.7872 18.7008 42.6752 36.1344a19.2 19.2 0 0 1 1.856 25.6 20.992 20.992 0 0 1-25.9712 5.7472q-24.2048-19.2-47.0784-39.7952c-88.0768 80.7936-172.9152 116.1472-229.12 85.6704a139.2384 139.2384 0 0 1-58.304-132.7872 420.4672 420.4672 0 0 1 4.8256-62.016q4.1728-21.76 9.3184-43.2256z m50.0992-30.5152c24.0256 4.5952 49.0752 8.448 74.9056 11.52q-22.464-33.5872-41.8304-69.12l-9.088-15.2576q-13.5168 35.9168-24 72.8576z m285.6704 55.4752a1254.6688 1254.6688 0 0 1-127.04 1.9072 881.2672 881.2672 0 0 0 64.2816 70.6816 876.1856 876.1856 0 0 0 62.72-72.5888z m-119.488-384q18.304-0.2048 36.6464 0.3712c25.6 0 50.8288 0.7424 75.2768 2.2272a948.736 948.736 0 0 0-56.6272-70.7328 962.752 962.752 0 0 0-55.2832 68.096z m-49.6256 1.7152a989.6576 989.6576 0 0 1 77.824-98.9824c-85.9008-87.8592-165.9648-126.3488-207.0528-104.32-33.1136 17.9968-45.1712 74.304-32.512 154.9696q6.464 34.7904 15.7696 68.8256a938.8544 938.8544 0 0 1 145.92-20.544z m-27.5072 41.7024a891.5328 891.5328 0 0 0-107.2768 16.9728 895.8464 895.8464 0 0 0 39.616 102.0416q18.1632-36.608 39.424-71.5648 13.5552-24.064 28.2496-47.4496z m48.8832-3.3792q-23.04 34.1888-43.52 70.0416a906.1504 906.1504 0 0 0-50.7392 97.6384q11.84 22.3744 24.9088 44.0576a865.4976 865.4976 0 0 0 58.4448 93.0432q37.9904 2.6368 76.992 2.6368 56.32 0 112.576-5.4784 28.6848-41.1392 53.76-84.6464a862.7712 862.7712 0 0 0 27.136-48.0512 1168.64 1168.64 0 0 0-90.6368-165.2864q-51.8912-4.4928-104.0384-4.4544-32.4608-0.9728-64.9344 0.4224z m279.8592 218.5472q-5.2992 9.2416-10.8032 18.368a1257.7664 1257.7664 0 0 1-36.544 58.304q34.56-5.12 68.736-12.992a872.3072 872.3072 0 0 0-21.3888-63.68z m37.952-190.1696a894.5536 894.5536 0 0 0-99.0208-18.88q10.5728 17.1136 20.6848 35.0208 22.5152 38.9504 41.9712 79.552a849.3696 849.3696 0 0 0 36.3648-95.6928z m39.68 11.3152a885.8368 885.8368 0 0 1-53.76 134.144 923.2128 923.2128 0 0 1 35.1104 98.6496c105.8944-30.4256 169.6256-76.3008 169.6256-119.296 0-40.3584-56.1664-83.3024-150.9248-113.4976z" p-id="14601" fill="#ffffff"></path><path d="M554.176 429.0816a84.3264 84.3264 0 1 1-1.28 168.6528 85.9904 85.9904 0 0 1-60.7104-25.5104 84.0448 84.0448 0 0 1 61.9904-143.1424z" fill="#ffffff" fill-opacity="0.6" p-id="14602"></path></svg>