<?xml version="1.0" standalone="no"?><!DOCTYPE svg PUBLIC "-//W3C//DTD SVG 1.1//EN" "http://www.w3.org/Graphics/SVG/1.1/DTD/svg11.dtd"><svg t="1699690717810" class="icon" viewBox="0 0 1024 1024" version="1.1" xmlns="http://www.w3.org/2000/svg" p-id="2029" xmlns:xlink="http://www.w3.org/1999/xlink" width="200" height="200"><path d="M874.047862 512.015482c45.48111-63.993936 82.356067-127.849563 108.385084-188.577743 54.954277-128.231462 55.358883-228.728778 1.104412-282.941963-54.235893-54.235893-154.741466-53.889087-282.939899 1.104411-60.744696 26.047596-124.608579 62.920489-188.61903 108.401599C447.967978 104.506226 384.110287 67.631269 323.365592 41.600187 195.144451-13.345832 94.669843-13.756632 40.425693 40.495776c-54.235893 54.213185-53.858122 154.710501 1.104411 282.941963 26.062047 60.808689 62.986548 124.753082 108.546102 188.844041-16.514564 23.27315-31.899945 46.535977-46.092149 69.695589-6.733814-2.330618-13.851591-3.870601-21.38636-3.870601-36.431129 0-66.058257 29.633321-66.058257 66.058257 0 21.667108 10.620929 40.778588 26.788688 52.817704-56.624312 130.132701-57.881483 231.647727-2.902435 286.610261 26.93319 26.94764 65.244914 40.40701 112.724286 40.40701 48.12344 0 105.658117-13.83714 170.217677-41.513486 60.742631-26.029017 124.600322-62.903975 188.610773-108.399534 64.010451 45.49556 127.874334 82.370517 188.616966 108.401599 64.551303 27.674281 122.055015 41.511421 170.211484 41.511421 47.462857 0 85.799354-13.45937 112.732543-40.39256 82.2095-82.2095 36.292819-267.352215-109.49156-471.591958z m-160.459634-440.047076c113.310553-48.552819 203.197262-51.519247 246.597536-8.118972 43.39821 43.39821 40.448296 133.268404-8.11278 246.589278-23.925475 55.808905-57.470683 114.464508-98.651813 173.475175a1516.522104 1516.522104 0 0 0-54.729265-68.436354c6.605826-10.274123 10.548678-22.426778 10.548677-35.547599 0-36.422871-29.627128-66.058257-66.058256-66.058257-11.031729 0-21.289338 2.97675-30.432213 7.782489-1.717515-1.748479-3.404065-3.482509-5.138094-5.233053-54.188414-54.204928-110.699188-103.296534-167.426716-145.85663 58.994152-41.158422 117.616726-74.678859 173.402924-98.596077z m29.594099 374.021849c11.328991 0 21.836382-3.121253 31.150596-8.154066 20.956982 24.82139 40.609313 49.65723 58.791849 74.348568-42.970896 58.197324-93.111177 116.376069-148.88086 172.143688-55.800648 55.802712-114.028937 105.976022-172.281998 148.963433-58.244803-43.003925-116.456578-93.160721-172.27374-148.961369-55.77794-55.769683-105.909964-113.950493-148.88086-172.162267 43.301187-58.744369 93.57152-117.092388 148.878796-172.393471 55.802712-55.800648 114.033065-105.973958 172.275804-148.961368 58.253061 43.003925 116.464835 93.160721 172.281998 148.961368 1.2902 1.279879 2.539114 2.588658 3.814864 3.893309-6.870059 10.418626-10.934706 22.878864-10.934706 36.263918 0 36.431129 29.625064 66.058257 66.058257 66.058257zM71.898324 310.438712C23.331055 197.134352 20.372883 107.247644 63.779351 63.849434c43.41266-43.400275 133.251889-40.448296 246.589279 8.102458 55.784133 23.917218 114.417029 57.439718 173.402923 98.612591-56.727528 42.560096-113.240366 91.651702-167.420522 145.85663-53.775549 53.769357-102.900185 110.41844-145.743093 167.606312-41.205902-59.06021-74.775882-117.748842-98.709614-173.588713z m238.470306 641.696098c-113.30436 48.552819-203.207583 51.488282-246.589279 8.104522-44.197102-44.188845-40.279022-135.25428 10.166778-250.903709 2.854955 0.39635 5.701653 0.887658 8.653632 0.887658 36.431129 0 66.058257-29.627128 66.058257-66.058256 0-16.941878-6.589311-32.246751-17.102896-43.955577 12.150591-19.8856 25.085623-39.851708 39.036301-59.848781 42.545646 56.696563 91.604223 113.174308 145.776122 167.321436 54.180156 54.204928 110.699188 103.298599 167.420523 145.858695-59.002409 41.156358-117.635305 74.676795-173.419438 98.594012z m649.817134 8.121037c-43.400275 43.414725-133.237439 40.448296-246.597536-8.104523-55.786198-23.917218-114.408772-57.437654-173.402924-98.612591 56.727528-42.560096 113.238302-91.651702 167.426716-145.85663 54.132677-54.130613 103.185061-110.560878 145.703871-167.240927 127.593587 183.264183 174.032541 352.635488 106.869873 419.814671z m0 0" p-id="2030"></path><path d="M578.036685 463.020899a82.316845 82.316845 0 0 0-17.022387-17.030644c20.230341-15.05509 33.536951-38.955792 33.536952-66.058257 0-45.528589-37.038039-82.572821-82.572821-82.57282-30.221652 0-57.037176 16.45057-71.421361 42.099752-27.746532-7.644179-58.647346-0.957845-80.378448 20.787708-21.749681 21.749681-28.442208 52.650495-20.787708 80.380512-25.651247 14.38625-42.101817 41.205902-42.101817 71.421362 0 30.221652 16.45057 57.057819 42.099753 71.427554-7.652436 27.732082-0.957845 58.624638 20.787707 80.380512 15.806502 15.804438 36.682976 24.06172 57.931027 24.06172 7.483162 0 14.999353-1.160148 22.385492-3.240983 14.200461 24.9886 40.753816 42.060531 71.485355 42.06053 30.737733 0 57.293152-17.071931 71.493612-42.044016 7.386139 2.078771 14.892008 3.240983 22.377235 3.240984 21.239794 0 42.132782-8.257282 57.937219-24.06172 21.367782-21.353331 28.698184-51.954819 20.740229-80.266975 25.038144-14.216975 42.141039-40.786845 42.141039-71.557606 0-45.528589-37.038039-82.572821-82.572821-82.572821-27.094207 0-50.99491 13.314867-66.058257 33.545208z m-16.514564 49.027613c0 27.319218-22.224475 49.543692-49.543692 49.543692-27.31096 0-49.543692-22.224475-49.543693-49.543692 0-27.31096 22.232732-49.543692 49.543693-49.543693 27.319218 0 49.543692 22.232732 49.543692 49.543693z m-49.543692-181.660206c27.319218 0 49.543692 22.232732 49.543692 49.543692 0 27.319218-22.224475 49.543692-49.543692 49.543693a45.745343 45.745343 0 0 1-11.789335-1.58127c2.708389-24.125714-4.805738-49.196887-23.256635-67.647783-2.175794-2.175794-4.652978-3.845829-7.014561-5.724361 8.789877-14.730991 24.456005-24.133971 42.060531-24.133971z m-181.660206 181.660206c0-17.602461 9.400916-33.270654 24.125714-42.044016 1.886789 2.361583 3.556824 4.836703 5.734683 7.022818 16.1017 16.095507 37.238278 24.142228 58.378984 24.142228 4.050197 0 8.057043-0.56356 12.074211-1.160148-0.598653 3.967624-1.226206 7.910476-1.226207 12.039118s0.627553 8.079751 1.226207 12.039117c-24.97415-3.662105-51.277722 3.821057-70.45526 22.990337-2.175794 2.184051-3.845829 4.659171-5.732618 7.022819-14.722734-8.773362-24.125714-24.441555-24.125714-42.052273z m53.21199 128.454408c-19.303461-19.319976-19.303461-50.753384 0-70.07336 19.305525-19.272496 50.745127-19.32204 70.05891-0.016514 2.788897 2.790961 5.183509 5.976208 7.216865 9.466973-18.983491 15.143855-31.400379 38.181672-31.40038 64.282941 0 3.090288 0.580074 6.017494 0.910365 9.02521-16.595073 4.20915-34.335843-0.233268-46.78576-12.68525z m256.904689 0c-12.460239 12.435467-30.192752 16.877885-46.787825 12.668735 0.330291-2.993265 0.904172-5.918407 0.904173-9.00663 0-26.103333-12.418952-49.14115-31.392123-64.282941 2.031291-3.49283 4.411453-6.661562 7.183836-9.436009 2.790961-2.790961 5.976208-5.185573 9.458716-7.216865 15.143855 18.97317 38.181672 31.392122 64.293263 31.392122 3.088223 0 6.01543-0.571817 9.021081-0.904172 4.211214 16.611587-0.216754 34.335843-12.683186 46.78576z m0 0M297.289095 148.7281h33.029128v33.029129h-33.029128z m0 0M132.143454 264.330049h33.029128v33.029129h-33.029128z m0 0M842.269712 693.708717h33.029128v33.029128h-33.029128z m0 0M710.153199 858.854359h33.029128v33.029128h-33.029128z m0 0M313.803659 842.339794h33.029128v33.029129h-33.029128z m0 0M99.114325 776.281538h33.029129v33.029128h-33.029129z m0 0M809.240583 264.330049h33.029129v33.029129h-33.029129z m0 0M858.784276 99.184408h33.029128v33.029128h-33.029128z m0 0M677.12407 165.242665h33.029129v33.029128h-33.029129z m0 0" p-id="2031"></path></svg>